<?xml version="1.0" encoding="UTF-8" standalone="no"?>
<svg
   viewBox="0 0 377.60998 80.079998"
   version="1.1"
   id="svg14"
   sodipodi:docname="navbar-logo.svg"
   inkscape:version="1.3 (0e150ed6c4, 2023-07-21)"
   width="377.60999"
   height="80.080002"
   xmlns:inkscape="http://www.inkscape.org/namespaces/inkscape"
   xmlns:sodipodi="http://sodipodi.sourceforge.net/DTD/sodipodi-0.dtd"
   xmlns="http://www.w3.org/2000/svg"
   xmlns:svg="http://www.w3.org/2000/svg">
  <defs
     id="defs14" />
  <sodipodi:namedview
     id="namedview14"
     pagecolor="#ffffff"
     bordercolor="#000000"
     borderopacity="0.25"
     inkscape:showpageshadow="2"
     inkscape:pageopacity="0.0"
     inkscape:pagecheckerboard="0"
     inkscape:deskcolor="#d1d1d1"
     inkscape:zoom="1.7781264"
     inkscape:cx="117.53945"
     inkscape:cy="4.7803125"
     inkscape:window-width="1920"
     inkscape:window-height="1017"
     inkscape:window-x="-8"
     inkscape:window-y="-8"
     inkscape:window-maximized="1"
     inkscape:current-layer="svg14" />
  <style
     id="style1">.cls-1{fill:#fed136;}</style>
  <g
     id="g3841"
     transform="matrix(2.465023,0,0,2.465023,-34.60452,-52.412662)"
     inkscape:export-filename="g3841.png"
     inkscape:export-xdpi="300"
     inkscape:export-ydpi="300"
     style="display:inline;fill:#0044aa;fill-opacity:1">
    <path
       d="m 30.265243,21.295 c -8.961956,0 -16.227029,7.265073 -16.227029,16.227029 0,8.961184 7.265073,16.227029 16.227029,16.227029 4.304027,0 8.430328,-1.708474 11.475601,-4.754519 3.042954,-3.042182 4.751429,-7.168484 4.751429,-11.47251 -0.0031,-0.778897 -0.06645,-1.560886 -0.18468,-2.33051 h -5.32092 l -9.785671,10.075439 h -6.25127 l -1.587931,-6.894169 c -0.875486,-3.790943 -1.611884,-6.954441 -1.63893,-7.030167 -0.03941,-0.10818 0.59731,-0.138316 2.937093,-0.138316 2.912365,0 2.994273,0.0031 3.355904,0.247269 0.202451,0.139088 0.458993,0.407221 0.571037,0.597309 0.111271,0.18777 0.530856,1.757155 0.935759,3.486493 0.40413,1.729338 0.769624,3.184361 0.814442,3.233042 0.03941,0.04791 1.654384,-1.632748 3.583082,-3.736853 l 3.504266,-3.82726 H 45.19411 C 42.65883,25.203396 36.778464,21.3035 30.265243,21.295 Z m 14.928867,9.909306 c 0.540128,1.276526 0.914123,2.614097 1.113483,3.987213 h 2.019879 c 1.578658,0 2.831231,0.06954 2.867548,0.06954 0,0 -0.64599,2.254784 -1.437251,4.926062 -0.793579,2.671278 -1.439569,4.907518 -1.439569,4.967789 0,0.07264 1.008394,0.112044 2.870638,0.112044 2.638052,0 2.876048,-0.01545 2.92782,-0.193179 0.03323,-0.105862 0.687717,-2.288011 1.460433,-4.844927 0.772715,-2.559234 1.427978,-4.738293 1.458114,-4.844155 0.05177,-0.178497 0.289769,-0.193178 2.954865,-0.193178 h 2.900775 l 0.573357,-1.814337 c 0.31449,-0.99603 0.60426,-1.892381 0.6429,-1.992061 0.0634,-0.166134 -0.799764,-0.180815 -11.071473,-0.180815 z m 115.49395,-0.0031 -2.06161,2.012924 -2.06469,2.019879 -0.64909,2.052333 -0.64908,2.055423 3.03059,2.957956 3.03059,2.961047 2.90696,0.0031 c 1.59952,0.0031 2.90618,-0.01777 2.90618,-0.0425 0,-0.02705 -1.68065,-1.680657 -3.73685,-3.675808 -2.05542,-1.998243 -3.73608,-3.658809 -3.73608,-3.692036 0,-0.03323 1.53925,-1.529977 3.41927,-3.328859 l 3.42004,-3.266269 -2.91005,-0.03014 z m -94.265128,0.0031 -2.20379,6.891078 c -1.210072,3.794034 -2.224648,6.957532 -2.254783,7.035576 -0.03941,0.112044 0.622036,0.132907 3.244633,0.112044 l 3.29331,-0.03014 1.62657,-5.20424 1.62425,-5.206558 2.80109,-0.02705 c 2.22465,-0.02395 2.79182,-0.0031 2.7501,0.10818 -0.0278,0.07882 -0.23877,0.700853 -0.46518,1.385479 l -0.4134,1.247163 h -4.15335 l -0.99603,3.265497 0.6429,0.03323 0.63981,0.03323 1.1413,2.209967 1.13744,2.206103 3.18436,0.0031 c 1.75097,0 3.18436,-0.03632 3.18436,-0.08191 0,-0.04482 -0.18081,-0.383267 -0.40413,-0.747988 -0.67612,-1.117347 -1.82283,-3.380631 -1.76256,-3.477221 0.0332,-0.05177 0.2349,-0.121316 0.45281,-0.156861 1.40325,-0.226406 2.35987,-1.847563 3.4409,-5.813913 0.43427,-1.59334 0.25654,-2.68596 -0.56485,-3.453266 l -0.29595,-0.277405 -7.82607,-0.02704 z m 49.797658,0 -0.16614,0.470583 c -0.55249,1.575568 -2.17287,6.15159 -2.23933,6.320815 -0.061,0.147588 -0.46208,-0.53781 -1.55161,-2.659688 -0.80903,-1.572476 -1.62425,-3.03909 -1.80815,-3.262405 -0.187,-0.223315 -0.55868,-0.509993 -0.82372,-0.639809 -0.46208,-0.220997 -0.63131,-0.232587 -3.08854,-0.205542 l -2.59865,0.03014 7.10512,14.005471 h 3.00973 l 3.00973,0.0031 0.16845,-0.525446 c 0.29904,-0.932668 4.05676,-13.404299 4.05676,-13.470753 0,-0.03632 -1.14362,-0.06645 -2.53837,-0.06645 z m 14.64837,0 -1.81743,5.56278 c -1.01071,3.090862 -1.81665,5.738186 -1.81356,5.95532 0.008,0.519264 0.61276,1.69302 1.02307,1.985879 0.18082,0.129816 0.51927,0.305223 0.75186,0.389449 0.34385,0.126725 1.80738,0.15377 7.97442,0.163043 l 7.55175,0.0062 0.34463,-1.135119 c 0.187,-0.624354 0.41341,-1.355343 0.50072,-1.623476 0.0873,-0.271996 0.15996,-0.507674 0.15996,-0.528537 0,-0.01777 -2.51751,-0.03323 -5.59601,-0.03323 h -5.59292 l -0.0997,-0.256542 c -0.0726,-0.196269 0.10277,-0.923395 0.72713,-3.018227 0.45281,-1.518386 0.89944,-3.024409 0.99294,-3.341223 l 0.17231,-0.582627 h 11.34347 l 0.47986,-1.633521 c 0.26504,-0.899441 0.5069,-1.696111 0.53394,-1.771837 0.0425,-0.111271 -1.76256,-0.138316 -8.79273,-0.138316 z m 22.44507,0 c -2.75318,0 -2.99736,0.01468 -3.04913,0.193179 -0.0332,0.105089 -0.93499,3.195952 -2.00675,6.869442 -1.07175,3.670399 -1.97738,6.749671 -2.0106,6.836988 -0.0541,0.14218 0.33536,0.163043 2.85595,0.159952 h 2.91855 l 2.09483,-6.894169 c 1.1498,-3.787852 2.11261,-6.95135 2.13965,-7.027076 0.0394,-0.10818 -0.59731,-0.138316 -2.9425,-0.138316 z m -30.10577,0.03941 c -0.009,0.01468 -0.9234,3.099363 -2.02529,6.857852 -1.0988,3.760807 -2.02838,6.908851 -2.0647,6.999258 -0.0541,0.145271 0.30754,0.166134 2.85519,0.166134 h 2.91932 l 0.6398,-2.13115 c 0.35314,-1.173755 1.30358,-4.297844 2.11261,-6.948259 l 1.4728,-4.81711 -2.94251,-0.07573 c -1.62115,-0.03941 -2.95563,-0.06336 -2.96722,-0.051 z m -33.769998,0.08423 c -3.17586,-0.0031 -3.29331,0.0425 -3.65572,0.217133 -0.7843,0.380176 -0.99293,0.875487 -2.12187,5.065151 -1.62116,6.003229 -1.91943,7.207892 -1.84447,7.470616 0.14836,0.530855 0.35081,0.787397 0.77271,0.980576 0.41649,0.18777 0.93035,0.202451 7.8817,0.202451 l 7.44048,0.0031 0.16845,-0.525446 c 0.0935,-0.289769 0.98135,-3.042182 1.971198,-6.118363 1.98279,-6.142317 2.04074,-6.408131 1.49984,-6.945169 l -0.30445,-0.307541 -7.488388,-0.03013 c -1.86301,-0.0062 -3.26008,-0.01236 -4.31948,-0.01236 z m 13.923568,1.648203 c -0.0394,0 -0.84535,2.704505 -1.77802,6.006319 -0.93499,3.304905 -1.723158,6.070454 -1.750198,6.145407 -0.0394,0.108953 0.389448,0.139089 1.895468,0.139089 h 1.94106 l 0.18391,-0.636717 c 0.10277,-0.350041 0.60349,-2.073969 1.11348,-3.833443 l 0.92958,-3.196725 -1.22785,-2.311965 c -0.67303,-1.271117 -1.26184,-2.311965 -1.30743,-2.311965 z m -13.398888,1.659793 h 2.83123 c 2.21924,0 2.81964,0.03014 2.78023,0.139089 -0.0271,0.07495 -0.54322,1.720065 -1.14362,3.654945 l -1.09262,3.516629 h -2.39387 c -2.17906,0 -2.41165,-0.02086 -2.57778,-0.205542 -0.10278,-0.108181 -0.18391,-0.292087 -0.18391,-0.404131 0,-0.108953 0.34386,-1.451932 0.76653,-2.978819 0.41959,-1.530749 0.82063,-2.991955 0.89017,-3.250814 z"
       style="fill:#0044aa;fill-opacity:1;fill-rule:nonzero;stroke:none;stroke-width:0.772716"
       id="path150" />
    <text
       xml:space="preserve"
       style="font-variant:normal;font-weight:600;font-size:5.59616px;font-family:'Segoe UI Semibold';-inkscape-font-specification:SegoeUI-Semibold;writing-mode:lr-tb;fill:#0044aa;fill-opacity:1;fill-rule:nonzero;stroke:none;stroke-width:0.772716"
       id="text154"
       x="63.192326"
       y="52.917702"><tspan
         x="63.192326 66.239059 69.135506 72.619446 76.209946 77.841255 81.317001 84.213448 87.260185 88.798592 91.723015 94.810738 96.349144 99.395882 103.62579 106.26589 110.20069 113.28841 114.91972 119.14964 123.44239 126.48913 128.02753 129.65883 133.9516 137.96564 141.90045 144.94717 148.0349 151.51884 153.15015 156.0466 158.78183 161.51706 164.41351"
         y="52.917702"
         sodipodi:role="line"
         id="tspan152"
         style="fill:#0044aa;fill-opacity:1;stroke-width:0.772716">SERVICES ET SOLUTIONS INDUSTRIELLES</tspan></text>
  </g>
</svg>
